<svg width="120" height="120" viewBox="0 0 120 120" fill="none" xmlns="http://www.w3.org/2000/svg">
  <path d="M60 8L104 32V78L60 102L16 78V32L60 8Z" stroke="#218BC3" stroke-width="3" fill="none"/>
  <path d="M60 28L84 42V68L60 82L36 68V42L60 28Z" stroke="white" stroke-width="2" fill="none" opacity="0.6"/>
  <circle cx="60" cy="55" r="12" fill="#218BC3"/>
  <circle cx="60" cy="55" r="7" fill="#0D1B2A"/>
  <circle cx="60" cy="55" r="3" fill="#218BC3"/>
  <circle cx="60" cy="28" r="4" fill="white"/>
  <circle cx="84" cy="42" r="4" fill="#218BC3"/>
  <circle cx="84" cy="68" r="4" fill="#1E8B4C"/>
  <circle cx="60" cy="82" r="4" fill="white"/>
  <circle cx="36" cy="68" r="4" fill="#E67E22"/>
  <circle cx="36" cy="42" r="4" fill="#218BC3"/>
  <line x1="60" y1="43" x2="60" y2="32" stroke="white" stroke-width="1.5" opacity="0.7"/>
  <line x1="70" y1="49" x2="80" y2="42" stroke="#218BC3" stroke-width="1.5" opacity="0.7"/>
  <line x1="70" y1="61" x2="80" y2="68" stroke="#1E8B4C" stroke-width="1.5" opacity="0.7"/>
  <line x1="60" y1="67" x2="60" y2="78" stroke="white" stroke-width="1.5" opacity="0.7"/>
  <line x1="50" y1="61" x2="40" y2="68" stroke="#E67E22" stroke-width="1.5" opacity="0.7"/>
  <line x1="50" y1="49" x2="40" y2="42" stroke="#218BC3" stroke-width="1.5" opacity="0.7"/>
</svg>
